# File created by Blade
# Date/Time:  Mon Sep 22 16:09:39 2014
# Frame Rate: 120.000 fps
#------------------------------------------------------
:FULLY-SPECIFIED
:DEGREES
3732
root 2.086298 36.853057 4.551162 6.499701 -8.572950 1.955324
RightUpLeg 4.559806 -1.418055 -2.627209
RightLeg -5.771029 -0.000000 0.000000
RightFoot -14.817333 -15.197514 15.684281
RightToeBase 12.363279 -0.000000 -0.000000
LeftUpLeg 4.506240 5.826041 1.439280
LeftLeg -4.008935 -0.000000 0.000000
LeftFoot -11.589574 13.311480 -19.246856
LeftToeBase 6.384305 -0.000000 -0.000000
Spine -13.423034 -29.239782 6.719344
RightShoulder -16.750908 -23.173021 -2.447681
RightArm -4.998420 50.871897 79.869111
RightForeArm 92.136142 -0.000000 97.990555
RightHand 20.208761 -0.000000 -39.034759
RightHandThumb1 -24.326973 -0.000000 -32.862282
LeftShoulder -35.615916 44.064473 -11.509922
LeftArm 33.298172 8.880674 -77.823098
LeftForeArm 18.435061 -0.000000 22.057501
LeftHand -12.637776 -0.000000 -9.718051
LeftHandThumb1 -26.253704 0.000000 33.147579
Head 21.092476 11.161954 9.241960
3733
root 2.094254 36.852560 4.550839 6.473756 -8.730081 1.957556
RightUpLeg 4.557315 -1.323180 -2.669403
RightLeg -5.758787 -0.000000 0.000000
RightFoot -14.800990 -15.070195 15.747291
RightToeBase 12.280365 -0.000000 -0.000000
LeftUpLeg 4.571221 5.892032 1.408262
LeftLeg -4.050376 -0.000000 0.000000
LeftFoot -11.596141 13.405254 -19.240019
LeftToeBase 6.327136 -0.000000 -0.000000
Spine -13.390725 -29.170565 6.746044
RightShoulder -16.666019 -23.171868 -2.459077
RightArm -4.784036 50.765126 79.997706
RightForeArm 92.034101 -0.000000 98.151417
RightHand 19.953622 -0.000000 -38.713072
RightHandThumb1 -24.326973 -0.000000 -32.862282
LeftShoulder -35.616829 44.056709 -11.540330
LeftArm 33.370030 8.830126 -77.871973
LeftForeArm 18.227374 -0.000000 22.018843
LeftHand -12.682936 -0.000000 -9.517393
LeftHandThumb1 -26.253704 0.000000 33.147579
Head 21.038552 11.205678 9.146546
3734
root 2.101485 36.852061 4.550889 6.434799 -8.868581 1.947930
RightUpLeg 4.569530 -1.199204 -2.689622
RightLeg -5.748273 -0.000000 0.000000
RightFoot -14.797580 -15.064472 15.709325
RightToeBase 12.314297 -0.000000 -0.000000
LeftUpLeg 4.644821 5.993195 1.394036
LeftLeg -4.083458 -0.000000 0.000000
LeftFoot -11.603455 13.444459 -19.237291
LeftToeBase 6.347136 -0.000000 -0.000000
Spine -13.332251 -29.089111 6.772269
RightShoulder -16.573229 -23.160628 -2.479156
RightArm -4.593681 50.586504 80.100615
RightForeArm 91.909762 -0.000000 98.327938
RightHand 20.204981 0.000000 -38.344127
RightHandThumb1 -24.326973 -0.000000 -32.862282
LeftShoulder -35.572599 44.016613 -11.528154
LeftArm 33.404426 8.782363 -77.924919
LeftForeArm 17.994311 0.000000 22.029747
LeftHand -12.732004 -0.000000 -9.175933
LeftHandThumb1 -26.253704 0.000000 33.147579
Head 20.955879 11.224578 9.037931
3735
root 2.110577 36.851875 4.551368 6.411600 -8.975576 1.945595
RightUpLeg 4.573772 -1.099604 -2.710050
RightLeg -5.750303 -0.000000 0.000000
RightFoot -14.780854 -15.082225 15.706253
RightToeBase 12.330304 -0.000000 -0.000000
LeftUpLeg 4.695593 6.084932 1.371530
LeftLeg -4.113605 -0.000000 0.000000
LeftFoot -11.605525 13.469883 -19.234909
LeftToeBase 6.355264 -0.000000 -0.000000
Spine -13.305447 -29.009972 6.815741
RightShoulder -16.482699 -23.131522 -2.530264
RightArm -4.452663 50.337799 80.169797
RightForeArm 91.823127 -0.000000 98.480065
RightHand 20.470621 -0.000000 -37.971546
RightHandThumb1 -24.326973 -0.000000 -32.862282
LeftShoulder -35.585030 44.020707 -11.577295
LeftArm 33.503223 8.756638 -77.942275
LeftForeArm 17.677677 -0.000000 22.092534
LeftHand -12.637917 -0.000000 -8.920860
LeftHandThumb1 -26.253704 0.000000 33.147579
Head 20.877504 11.265483 8.923286
3736
root 2.121195 36.851429 4.551806 6.370662 -9.070293 1.950643
RightUpLeg 4.581594 -1.019334 -2.740506
RightLeg -5.721673 -0.000000 0.000000
RightFoot -14.778202 -15.095136 15.655045
RightToeBase 12.293973 -0.000000 -0.000000
LeftUpLeg 4.755524 6.181046 1.341874
LeftLeg -4.133247 -0.000000 0.000000
LeftFoot -11.607404 13.484965 -19.224664
LeftToeBase 6.347252 -0.000000 -0.000000
Spine -13.245414 -28.919761 6.826050
RightShoulder -16.387789 -23.153932 -2.532612
RightArm -4.255529 50.171492 80.262258
RightForeArm 91.634758 -0.000000 98.700090
RightHand 20.721596 -0.000000 -37.841182
RightHandThumb1 -24.326973 -0.000000 -32.862282
LeftShoulder -35.558213 43.990795 -11.578626
LeftArm 33.547398 8.711461 -77.975266
LeftForeArm 17.542018 0.000000 22.265438
LeftHand -12.784074 0.000000 -8.758650
LeftHandThumb1 -26.253704 0.000000 33.147579
Head 20.773255 11.249804 8.803934
3737
root 2.130368 36.851313 4.551130 6.344555 -9.124709 1.960690
RightUpLeg 4.597679 -0.919103 -2.770301
RightLeg -5.726917 -0.000000 0.000000
RightFoot -14.781045 -15.131336 15.666277
RightToeBase 12.287054 -0.000000 -0.000000
LeftUpLeg 4.787723 6.248214 1.311794
LeftLeg -4.142565 -0.000000 0.000000
LeftFoot -11.612218 13.485081 -19.224143
LeftToeBase 6.384083 -0.000000 -0.000000
Spine -13.208439 -28.837434 6.834081
RightShoulder -16.297067 -23.149431 -2.562601
RightArm -4.132539 49.940031 80.297025
RightForeArm 91.563109 0.000000 98.889893
RightHand 20.585144 -0.000000 -37.844908
RightHandThumb1 -24.326973 -0.000000 -32.862282
LeftShoulder -35.546052 43.983551 -11.588045
LeftArm 33.625967 8.699638 -77.974075
LeftForeArm 17.399633 -0.000000 22.459445
LeftHand -12.664116 -0.000000 -8.591190
LeftHandThumb1 -26.253704 0.000000 33.147579
Head 20.682487 11.214280 8.702183
3738
root 2.140090 36.851256 4.551740 6.301631 -9.159456 1.970048
RightUpLeg 4.617641 -0.890628 -2.799041
RightLeg -5.700612 -0.000000 0.000000
RightFoot -14.788467 -15.126887 15.659147
RightToeBase 12.271327 -0.000000 -0.000000
LeftUpLeg 4.830205 6.325880 1.285104
LeftLeg -4.142233 -0.000000 0.000000
LeftFoot -11.605780 13.475742 -19.207783
LeftToeBase 6.375078 -0.000000 -0.000000
Spine -13.142745 -28.759758 6.828814
RightShoulder -16.218557 -23.187100 -2.564667
RightArm -3.955587 49.783925 80.356742
RightForeArm 91.433338 -0.000000 99.107044
RightHand 20.992161 -0.000000 -37.464375
RightHandThumb1 -24.326973 -0.000000 -32.862282
LeftShoulder -35.536169 43.968885 -11.608608
LeftArm 33.692875 8.717156 -77.939282
LeftForeArm 17.286634 -0.000000 22.728987
LeftHand -12.650350 0.000000 -8.645762
LeftHandThumb1 -26.253704 0.000000 33.147579
Head 20.576308 11.176239 8.613641
3739
root 2.149529 36.851140 4.551336 6.259408 -9.183708 1.974975
RightUpLeg 4.646135 -0.807125 -2.819505
RightLeg -5.688214 -0.000000 0.000000
RightFoot -14.802464 -15.185786 15.664705
RightToeBase 12.233796 -0.000000 -0.000000
LeftUpLeg 4.865204 6.390620 1.262506
LeftLeg -4.131435 -0.000000 0.000000
LeftFoot -11.609235 13.470855 -19.163624
LeftToeBase 6.349028 -0.000000 -0.000000
Spine -13.073482 -28.658903 6.816696
RightShoulder -16.162373 -23.214811 -2.558557
RightArm -3.796301 49.631414 80.399403
RightForeArm 91.285209 -0.000000 99.336566
RightHand 20.760574 -0.000000 -37.255752
RightHandThumb1 -24.326973 -0.000000 -32.862282
LeftShoulder -35.485551 43.956233 -11.591845
LeftArm 33.754505 8.713736 -77.924220
LeftForeArm 17.084902 0.000000 23.044197
LeftHand -12.738578 -0.000000 -8.194587
LeftHandThumb1 -26.253704 0.000000 33.147579
Head 20.468444 11.116066 8.540142
3740
root 2.159605 36.850711 4.552571 6.193159 -9.203017 1.984978
RightUpLeg 4.704834 -0.729434 -2.848468
RightLeg -5.679167 -0.000000 0.000000
RightFoot -14.813577 -15.219020 15.662639
RightToeBase 12.203797 -0.000000 -0.000000
LeftUpLeg 4.916509 6.478333 1.238574
LeftLeg -4.105770 -0.000000 0.000000
LeftFoot -11.608052 13.447833 -19.108729
LeftToeBase 6.350097 -0.000000 -0.000000
Spine -12.970744 -28.548553 6.781611
RightShoulder -16.095908 -23.241539 -2.580143
RightArm -3.669628 49.435659 80.437935
RightForeArm 91.077870 -0.000000 99.571571
RightHand 20.014757 -0.000000 -37.482502
RightHandThumb1 -24.326973 -0.000000 -32.862282
LeftShoulder -35.423314 43.948423 -11.569777
LeftArm 33.834604 8.672575 -77.924014
LeftForeArm 16.924420 -0.000000 23.363920
LeftHand -12.634437 -0.000000 -8.111910
LeftHandThumb1 -26.253704 0.000000 33.147579
Head 20.354488 11.047321 8.464869
3741
root 2.167232 36.851006 4.553175 6.139811 -9.182709 1.987026
RightUpLeg 4.764586 -0.641357 -2.855331
RightLeg -5.692400 -0.000000 0.000000
RightFoot -14.833089 -15.327607 15.683357
RightToeBase 12.227609 -0.000000 -0.000000
LeftUpLeg 4.944369 6.540086 1.230571
LeftLeg -4.065125 -0.000000 0.000000
LeftFoot -11.613483 13.398412 -19.066437
LeftToeBase 6.351978 -0.000000 -0.000000
Spine -12.890833 -28.485503 6.764015
RightShoulder -16.036486 -23.301092 -2.602158
RightArm -3.483927 49.122528 80.513171
RightForeArm 90.865849 0.000000 99.728892
RightHand 20.257130 -0.000000 -36.978832
RightHandThumb1 -24.326973 -0.000000 -32.862282
LeftShoulder -35.386497 43.923833 -11.555517
LeftArm 33.868513 8.683176 -77.889680
LeftForeArm 16.950224 -0.000000 23.763675
LeftHand -12.606093 -0.000000 -8.388461
LeftHandThumb1 -26.253704 0.000000 33.147579
Head 20.249082 10.985057 8.409372
3742
root 2.177165 36.850985 4.554166 6.071211 -9.148433 2.004069
RightUpLeg 4.844666 -0.558271 -2.881695
RightLeg -5.711838 -0.000000 0.000000
RightFoot -14.857046 -15.428985 15.724161
RightToeBase 12.283296 -0.000000 -0.000000
LeftUpLeg 4.984357 6.583438 1.208525
LeftLeg -4.028113 -0.000000 0.000000
LeftFoot -11.611220 13.345585 -19.032470
LeftToeBase 6.366890 -0.000000 -0.000000
Spine -12.793308 -28.410977 6.725273
RightShoulder -15.931169 -23.303866 -2.665862
RightArm -3.464614 48.931008 80.491810
RightForeArm 90.635228 -0.000000 99.946172
RightHand 19.927000 -0.000000 -36.855142
RightHandThumb1 -24.326973 -0.000000 -32.862282
LeftShoulder -35.361777 43.903654 -11.554241
LeftArm 33.952215 8.712275 -77.825370
LeftForeArm 16.848640 -0.000000 24.150993
LeftHand -12.641302 -0.000000 -8.210432
LeftHandThumb1 -26.253704 0.000000 33.147579
Head 20.139914 10.913593 8.334650
